# xmcd
#
# Track frame offsets: 
#        150
#        14088
#        30958
#        41280
#        61529
#        78530
#        88496
#        102208
#        114558
#        130935
#        149576
#        165228
#        182842
#        201551
#        212847
#        225383
#        243316
#        257405
#        273119
#        289301
#        306291
#        325588
#
# Disc length: 4595 seconds
#
# Revision: 1
# Processed by: cddbd v1.5.2PL0 Copyright (c) Steve Scherf et al.
# Submitted via: ExactAudioCopyFreeDBPlugin 1.0
#
DISCID=3211f116
DTITLE=Kauko Röyhkä and Narttu - Menneysyyden taikaa etsimässä 1980 - 19
DTITLE=90 (levy 1)
DYEAR=2009
DGENRE=Rock
TTITLE0=Steppaillen
TTITLE1=Dora
TTITLE2=Eräs sukupolvi
TTITLE3=Kotikaupunkini
TTITLE4=Uusia tansseja
TTITLE5=Ei ole helppoa olla jumala
TTITLE6=Preerian kuu
TTITLE7=Onnellinen laiva
TTITLE8=Vakava tyttö
TTITLE9=Kanavaan hukkunut
TTITLE10=Nivelet
TTITLE11=Rakkauden valtakunta
TTITLE12=Onnenpäivä
TTITLE13=Minä kävelen
TTITLE14=Annina
TTITLE15=Lauralle
TTITLE16=Pähkinäpuu
TTITLE17=Kuollut osa
TTITLE18=Maa on voimaa
TTITLE19=Keskiyön juna
TTITLE20=Menneisyyden taikaa etsimässä
TTITLE21=Paska kaupunki
EXTD=
EXTT0=
EXTT1=
EXTT2=
EXTT3=
EXTT4=
EXTT5=
EXTT6=
EXTT7=
EXTT8=
EXTT9=
EXTT10=
EXTT11=
EXTT12=
EXTT13=
EXTT14=
EXTT15=
EXTT16=
EXTT17=
EXTT18=
EXTT19=
EXTT20=
EXTT21=
PLAYORDER=
